<svg height="28" fill="none" viewBox="0 0 226 221" xmlns="http://www.w3.org/2000/svg"><path clip-rule="evenodd" d="m81.0402 116.411c2.2791 1.099 2.2344 4.17 1.3731 6.124-1.1273 2.548-2.4493 5.267-3.9709 8.157-2.6571 5.044-5.2896 9.963-7.895 14.759-2.1809 4.013-4.343 7.94-6.4838 11.78l-1.8166 3.245-1.3521 2.398c-1.1395 2.012-2.1667 3.338-3.0839 3.977-2.2167 1.553-4.9206 2.211-8.1141 1.975-2.5278-.185-5.0964-.32-7.7107-.405-12.7368-.411-28.2494 4.283-36.05765 15.078-6.90663 9.546-7.00389 22.66 1.78304 30.864 3.73431 3.484 9.37521 5.77 14.54601 6.002 16.9837.757 28.5764-14.249 37.4795-26.438 1.538-2.249 3.0186-4.536 4.4563-6.851 5.94 2.204 12.2488 5.213 19.4722 8.757.0266.013.0533.026.08.039 22.3134 10.598 44.5894 13.155 61.7864 13.758 23.226 1.387 49.934-1.289 75.981-12.573 3.183-1.379 4.648-5.084 3.273-8.275s-5.07-4.66-8.253-3.281c-41.436 17.951-85.144 12.202-110.57 4.469-4.984-1.732-10.2964-3.914-16.2053-6.72-6.2286-3.056-12.3084-6-18.4025-8.402 1.4952-2.67 2.9685-5.352 4.4407-8.032 1.1628-2.117 2.3249-4.233 3.4965-6.34 6.6532-11.965 12.4099-23.002 17.2734-33.108 1.577-3.278 4.0552-5.141 7.4352-5.588.448-.06.896-.113 1.344-.161l.756-.076c.386-.036.772-.069 1.158-.101l1.65-.126.083-.006c.552-.041 1.105-.083 1.657-.129l1.049-.092c.615-.058 1.23-.124 1.847-.202 13.124-1.664 24.54-7.389 34.249-17.174 9.64-9.726 17.231-22.2623 22.099-34.8008 4.632-11.918 7.571-24.1395 8.817-36.6647 1.026-10.2838-.234-23.84664-9.814-29.45127-10.866-6.35541-21.917 2.60607-28.681 10.58887-3.867 4.5656-7.378 9.3781-10.53 14.4378l-.276.4417-.057.0881-.05.0807c-2.55 4.0985-5.174 8.3168-7.507 12.634-1.666 3.0892-3.085 5.7374-4.256 7.9446-1.707 3.2121-2.89 5.4895-3.547 6.8326-5.752 11.7322-11.902 24.746-18.454 39.0411-.855 1.8693-2.0884 4.3137-3.5552 5.5503-4.0713 3.433-8.6307.61-12.3259-1.9221-6.4751-4.4372-11.807-9.8835-15.9908-16.3388-6.9273-10.6839-12.3825-24.3429-9.5354-36.8522 1.1913-5.2056-2.8417-8.8509-7.7448-8.4991-3.4799.2493-5.7112 2.1417-6.6965 5.6774-2.4167 8.6942-1.0949 18.7259 1.8426 27.2936 4.5045 13.1427 12.1437 24.9812 22.9175 35.5132 4.7269 4.632 10.6079 8.217 16.5907 11.103zm-36.3352 66.686c-7.444-.012-15.4839 1.915-25.0932 6.947-3.2411 2.664-5.5292 6.068-4.3575 9.987.1498.5.3531 1.007.6201 1.522 1.7742 3.42 5.6531 4.237 9.2084 3.541.5068-.1 1.0071-.23 1.496-.388 6.2257-2.023 11.1774-6.18 15.4324-11.218.2735-.326.5468-.656.8149-.99l.3663-.452.5999-.767.4506-.602c.293-.397.5755-.801.8477-1.209.322-.481.626-.969.9144-1.464 1.1667-1.982.6335-4.171-1.3-4.907zm119.427-148.0543c-.833 6.694-2.738 14.314-5.711 22.8593-6.461 18.5806-17.234 36.6948-35.929 45.15l-.032.015c-2.773 1.243-11.29 4.691-13.2 1.492-1.175-1.97.593-5.5864 1.802-8.0582.193-.3951.372-.7609.522-1.0861 7.107-15.3896 14.026-29.5593 20.757-42.509 2.747-5.2915 24.683-47.5379 30.384-35.1877 2.371 5.1435 2.117 11.6741 1.407 17.3247z" fill="currentColor" fill-rule="evenodd"></path></svg>