<?xml version="1.0" standalone="no"?><!DOCTYPE svg PUBLIC "-//W3C//DTD SVG 1.1//EN" "http://www.w3.org/Graphics/SVG/1.1/DTD/svg11.dtd"><svg t="1718275709751" class="icon" viewBox="0 0 1024 1024" version="1.1" xmlns="http://www.w3.org/2000/svg" p-id="10881" xmlns:xlink="http://www.w3.org/1999/xlink" width="200" height="200"><path d="M825.6 765.12c-29.696 0-56.512 17.6-68.416 44.8H615.04a104.32 104.32 0 0 0-73.088-84.736V600.768h179.2c49.408 0 89.6-40.192 89.6-89.6 0-49.344-40.192-89.6-89.6-89.6H302.912c-49.408 0-89.6 40.256-89.6 89.6 0 49.408 40.192 89.6 89.6 89.6h179.2v124.352a104 104 0 0 0-73.088 84.672H266.816a74.624 74.624 0 1 0-0.128 59.776h151.296c16.832 35.2 52.48 59.712 94.016 59.712 41.472 0 77.184-24.576 94.016-59.648h151.168a74.624 74.624 0 1 0 68.416-104.512z m-522.688-224a29.888 29.888 0 1 1 0-59.712h418.112a29.888 29.888 0 1 1 0 59.712H302.912zM512 869.632a44.8 44.8 0 1 1 0.128-89.728A44.8 44.8 0 0 1 512 869.632z m-224-149.312h85.376a29.888 29.888 0 0 0 0-59.84H288a164.48 164.48 0 0 1-164.288-164.288 163.392 163.392 0 0 1 138.56-162.304l17.856-2.816 5.76-16.96a239.104 239.104 0 0 1 452.224 0l5.888 16.96 17.792 2.816a163.392 163.392 0 0 1 138.624 162.304 164.48 164.48 0 0 1-164.288 164.288h-90.88a29.888 29.888 0 0 0 0 59.84H736c123.52 0 224-100.48 224-224a222.592 222.592 0 0 0-171.584-217.792 298.88 298.88 0 0 0-552.96 0A222.528 222.528 0 0 0 64 496.32c0 123.52 100.48 224 224 224z" p-id="10882" fill="#ffffff"></path></svg>