<svg width="256" height="256" viewBox="0 0 256 256" fill="none" xmlns="http://www.w3.org/2000/svg">
<g clip-path="url(#clip0_6128_225)">
<rect width="256" height="256" fill="#875FFE"/>
<path d="M207.878 166.796C206.153 164.309 207.428 161.861 208.281 160.947C209.374 160.024 212.25 157.762 214.379 155.494C218.118 151.51 219.034 150.747 223.727 143.119C229.34 133.993 231.694 119.81 228.156 108.028C224.888 97.144 219.988 88.0242 207.648 76.9204C195.494 65.9828 180.238 57.9904 159.73 52.9895C139.222 47.9886 113.854 47.5365 93.2022 52.1419C72.5507 56.7473 60.8193 62.469 49.7708 70.5351C38.122 79.0395 30.7588 89.1826 27.1635 101.473C24.1231 111.866 27.221 118.708 30.3849 123.031C33.7349 127.608 41.4873 131.662 55.1494 128.794C69.4157 125.799 80.2016 119.075 92.9434 114.554C105.685 110.034 116.068 108.48 128.638 108.565C141.207 108.649 150.957 112.04 154.064 117.323C157.17 122.607 156.02 127.014 152.482 131.478C148.944 135.942 141.006 137.186 135.483 137.073C129.961 136.96 122.655 136.451 115.723 137.694C108.792 138.937 101.141 141.989 101.083 146.086C101.026 150.182 103.384 151.312 112.818 152.866C122.252 154.42 139.481 152.584 148.599 149.787C157.717 146.99 171.235 140.802 172.443 127.749C173.651 114.696 166.087 108.423 160.334 104.835C154.582 101.247 144.428 97.2914 128.983 96.811C113.537 96.3307 106.088 97.4609 95.7333 99.9189C85.3788 102.377 73.2698 108.367 70.5662 109.497C67.8625 110.627 63.2892 112.379 60.2116 112.859C57.1341 113.339 49.1093 115.204 45.1113 107.66C41.1133 100.117 47.211 91.4146 54.9193 85.8486C62.6277 80.2826 73.3561 74.0668 86.2992 70.5351C99.2424 67.0034 117.363 62.9913 143.681 66.1275C169.998 69.2637 189.614 81.1867 198.559 89.9171C207.505 98.6475 210.41 104.892 211.761 109.017C213.113 113.142 215.328 120.77 212.768 129.331C210.208 137.892 205.721 142.921 202.471 147.385C199.221 151.849 196.891 154.618 197.668 163.349C198.444 172.079 208.109 185.81 212.941 194.71C217.773 203.61 217.917 210.335 211.589 214.996C205.261 219.658 194.188 215.336 188.464 210.674C182.74 206.012 172.529 196.264 161.743 188.749C150.957 181.233 136.921 181.177 131.485 181.318C126.049 181.459 111.179 183.776 96.2223 179.708C81.2658 175.639 74.3628 168.632 70.9113 161.06C67.4598 153.488 68.6966 146.792 69.5019 142.61C70.3073 138.429 74.104 138.711 74.9956 138.796C75.8872 138.881 79.9715 139.898 79.2524 144.306C78.5333 148.713 77.5554 153.884 81.8123 159.986C86.0691 166.089 93.8062 169.706 101.169 171.09C108.533 172.475 114.429 172.559 123.259 172.107C132.089 171.655 144.083 170.666 154.927 174.735C165.77 178.803 170.66 182.476 176.125 187.336C181.59 192.196 182.826 193.326 190.276 199.429C197.725 205.531 203.593 208.809 205.606 206.153C207.62 203.497 203.967 197.959 203.19 196.547C202.414 195.134 201.896 195.106 196.891 186.827C191.887 178.549 187.227 169.593 187.543 159.506C187.86 149.42 193.814 142.639 195.194 140.802C196.299 139.333 197.591 137.572 198.099 136.875L200.141 133.767C201.618 131.582 204.41 125.602 203.765 119.16C202.96 111.107 199.681 103.931 188.55 94.2682C177.419 84.6054 159.068 78.0223 144.773 76.1293C130.479 74.2363 112.847 73.7843 94.6404 78.5026C76.4337 83.221 67.8337 89.126 64.0658 91.4146C60.2979 93.7031 53.2511 99.6647 55.4658 102.179C57.6805 104.694 61.7073 102.405 68.7829 99.4104C75.8585 96.4155 82.934 90.793 104.995 87.9394C127.056 85.0858 160.967 86.8657 174.313 103.592C187.658 120.318 183.574 134.247 177.448 142.243C171.321 150.239 161.283 157.048 146.787 160.325C132.291 163.603 118.484 163.772 107.296 161.682C96.1072 159.591 91.7641 153.488 91.1889 148.176C90.6136 142.865 93.0009 136.055 103.384 131.252C113.767 126.449 125.33 127.269 134.563 127.382C143.796 127.495 145.579 125.206 145.493 123.426C145.406 121.646 142.904 118.792 133.182 118.425C123.46 118.058 117.852 118.34 110.891 119.81C103.931 121.279 101.802 121.364 90.7862 125.997C79.7701 130.631 74.2478 133.202 67.7762 135.462C61.3046 137.722 50.8063 140.52 40.0491 138.966C29.2919 137.412 24.4023 132.693 20.6056 126.562C17.7708 121.984 13.3575 113.989 18.0745 97.3196C22.7915 80.6499 36.9715 65.922 51.1227 57.6797C66.5969 48.6667 83.1353 41.8769 112.07 39.5407C135.167 37.676 153.287 40.8404 170.861 45.8696C188.435 50.8987 212.193 64.4605 225.194 81.1867C238.113 97.8083 239.301 112.309 239.598 115.928L239.604 115.995C239.891 119.499 241.502 128.031 235.232 142.187C230.215 153.511 222.71 161.54 219.585 164.14L217.054 166.428C216.574 166.852 215.368 167.852 214.379 168.463C213.142 169.225 210.036 169.904 207.878 166.796Z" fill="white"/>
</g>
<defs>
<clipPath id="clip0_6128_225">
<rect width="256" height="256" fill="white"/>
</clipPath>
</defs>
</svg>
