<svg width="2600" height="1002" viewBox="0 0 2600 1002" fill="none" xmlns="http://www.w3.org/2000/svg">
<path d="M450.204 179.975C450.297 181.375 449.505 182.765 447.803 184.114C446.106 185.461 443.583 186.7 440.426 187.788C434.117 189.961 425.402 191.488 416.057 192.114C406.712 192.741 397.018 192.449 389.621 191.19C385.918 190.561 382.823 189.694 380.64 188.598C378.432 187.49 377.305 186.227 377.215 184.869C377.125 183.503 378.081 182.036 380.121 180.545C382.136 179.073 385.082 177.673 388.659 176.427C395.805 173.937 405.353 172.098 414.689 171.472C424.025 170.846 432.876 171.452 439.429 173.018C442.709 173.802 445.384 174.82 447.253 176.023C449.13 177.231 450.111 178.568 450.204 179.975Z" fill="white" stroke="black"/>
<path d="M112.01 533.642L112.065 533.526L112.115 533.406C119.085 516.514 123.143 497.515 123.383 481.657C123.503 473.742 122.676 466.349 120.605 460.308C118.552 454.316 115.031 449.005 109.305 446.46C103.743 443.986 97.7672 444.508 92.0447 446.756C86.3966 448.974 80.6726 452.98 75.0465 458.07C63.7772 468.264 51.9398 483.695 40.7698 501.3L40.605 501.561L40.4733 501.838C37.7181 507.644 36.0521 512.576 36.0269 516.842C35.9992 521.617 38.019 525.155 41.3818 527.783C44.3528 530.105 48.4187 531.738 52.5276 533.292C53.3999 533.621 54.2942 533.954 55.2112 534.295C58.8557 535.651 62.8723 537.146 67.3556 539.139C71.9057 541.162 75.6588 543.131 78.9986 544.883C79.7726 545.289 80.5247 545.683 81.2595 546.065C84.92 547.963 88.6679 549.823 92.2621 550.368C94.2045 550.662 96.2437 550.605 98.312 549.939C100.37 549.276 102.146 548.109 103.713 546.616C106.694 543.776 109.289 539.375 112.01 533.642Z" fill="#FF4300" stroke="#FF4300" stroke-width="10"/>
<path d="M109.5 456.5C141.5 409.5 126.783 373.771 122.6 330.698" stroke="#FF4300" stroke-width="30"/>
<path d="M581.267 97.0039C593.789 96.9519 605.051 97.3418 613.854 98.4316L613.855 98.4326C618.158 98.9655 622.723 99.7603 626.856 101.103L627.677 101.378L627.682 101.38C629.72 102.09 632.302 103.164 634.875 104.852L635.39 105.197L635.392 105.199C637.567 106.699 640.494 109.193 642.706 113.03C647.265 120.228 646.663 127.737 645.595 132.193L645.594 132.196C644.409 137.128 642.02 141.443 639.905 144.703C635.562 151.401 628.975 158.737 621.54 166.118C606.401 181.147 584.347 199.662 559.398 219.014C546.923 228.69 533.589 238.678 519.847 248.666C526.964 264.349 531.563 278.94 534.649 288.736C535.983 292.969 537.035 296.306 537.886 298.451C543.518 312.641 542.48 311.996 533.794 306.587C523.533 300.197 502.597 287.16 469.376 284.08C443.922 301.32 418.896 317.329 396.952 330.247L395.344 331.194L393.727 332.147L391.874 332.448L390.019 332.751L390.018 332.75C357.955 337.979 327.986 342.308 300.256 345.811C267.708 378.257 270.862 407.515 269.416 407.733C269.016 407.79 268.265 405.636 266.317 400.729C264.579 396.35 262.38 391.353 259.959 385.854C255.601 375.952 250.522 364.416 246.117 351.897C220.519 354.387 197.454 356.03 177.087 356.897C150.417 358.034 128.016 357.86 110.43 356.448C93.8999 355.122 78.4533 352.522 68.1797 346.766C61.6946 343.132 57.6633 336.671 57.0752 329.554V329.553C56.6133 323.953 58.3963 319.509 59.4053 317.345C61.5236 312.8 64.8994 308.704 67.6348 305.662L67.6367 305.66C73.5678 299.067 82.5042 290.972 92.8457 282.271L94.835 280.604C115.645 263.239 144.229 241.551 173.557 220.162C203.905 198.03 235.381 175.979 260.49 158.99L265.122 155.865C275.757 148.711 285.15 142.54 292.646 137.793L292.647 137.792C296.919 135.088 300.691 132.772 303.782 130.977L303.784 130.976C306.448 129.429 309.822 127.541 312.754 126.436L312.759 126.434C318.644 124.218 327.973 122.191 338.154 120.323L340.196 119.953C350.557 118.095 363.167 116.146 377.173 114.207L382.858 113.431C411.674 109.55 446.149 105.697 479.925 102.702C515.875 99.5136 551.457 97.2579 578.745 97.0195L581.267 97.0039ZM378.431 200.812C376.313 195.477 356.713 198.37 336.273 206.068C315.833 213.766 295.632 225.863 297.75 231.197C299.867 236.532 322.835 231.405 343.274 223.707C363.714 216.009 380.547 206.147 378.431 200.812Z" fill="#FF4300"/>
<path d="M518.533 404.227C516.379 384.068 507.3 368.372 491.296 357.138C475.446 345.905 454.826 340.288 429.435 340.288C411.585 340.288 396.274 342.981 383.501 348.367C370.729 353.753 360.958 361.062 354.187 370.295C347.416 379.528 343.954 390.069 343.8 401.918C343.8 411.767 346.031 420.307 350.494 427.54C355.11 434.772 361.342 440.928 369.19 446.006C377.038 450.93 385.733 455.085 395.273 458.47C404.814 461.856 414.432 464.702 424.126 467.011L468.445 478.09C486.295 482.245 503.453 487.862 519.918 494.94C536.538 502.019 551.387 510.944 564.467 521.716C577.701 532.488 588.165 545.491 595.859 560.725C603.554 575.96 607.401 593.81 607.401 614.276C607.401 641.975 600.322 666.366 586.165 687.447C572.008 708.375 551.541 724.764 524.766 736.613C498.144 748.308 465.906 754.156 428.05 754.156C391.272 754.156 359.342 748.462 332.259 737.075C305.329 725.687 284.247 709.068 269.013 687.217C253.932 665.365 245.777 638.744 244.545 607.352H328.796C330.027 623.817 335.105 637.513 344.031 648.438C352.956 659.364 364.574 667.52 378.885 672.906C393.35 678.291 409.508 680.984 427.358 680.984C445.978 680.984 462.289 678.214 476.293 672.675C490.45 666.981 501.529 659.133 509.531 649.131C517.533 638.974 521.611 627.125 521.765 613.584C521.611 601.273 517.995 591.117 510.916 583.115C503.838 574.959 493.912 568.188 481.14 562.803C468.522 557.263 453.749 552.339 436.822 548.03L383.04 534.18C344.107 524.178 313.331 509.021 290.71 488.708C268.243 468.242 257.01 441.081 257.01 407.227C257.01 379.375 264.55 354.984 279.631 334.056C294.865 313.128 315.562 296.893 341.722 285.352C367.882 273.657 397.505 267.81 430.59 267.81C464.136 267.81 493.527 273.657 518.764 285.352C544.155 296.893 564.083 312.974 578.548 333.594C593.013 354.061 600.476 377.605 600.938 404.227H518.533ZM850.594 392.455V457.085H646.777V392.455H850.594ZM697.096 307.511H780.655V640.359C780.655 651.593 782.347 660.21 785.733 666.212C789.272 672.059 793.889 676.06 799.582 678.214C805.276 680.369 811.585 681.446 818.51 681.446C823.742 681.446 828.512 681.061 832.821 680.292C837.283 679.522 840.669 678.83 842.977 678.214L857.057 743.538C852.595 745.076 846.209 746.769 837.899 748.616C829.743 750.462 819.741 751.54 807.892 751.847C786.964 752.463 768.113 749.308 751.34 742.384C734.567 735.305 721.256 724.379 711.407 709.607C701.713 694.834 696.943 676.368 697.096 654.209V307.511ZM1139.95 597.888V392.455H1223.51V747H1142.49V683.985H1138.8C1130.8 703.836 1117.64 720.071 1099.33 732.689C1081.17 745.307 1058.78 751.616 1032.16 751.616C1008.92 751.616 988.378 746.461 970.528 736.151C952.832 725.687 938.982 710.53 928.98 690.679C918.977 670.674 913.976 646.515 913.976 618.2V392.455H997.534V605.274C997.534 627.741 1003.69 645.591 1016 658.825C1028.31 672.059 1044.47 678.676 1064.47 678.676C1076.78 678.676 1088.71 675.675 1100.25 669.674C1111.79 663.673 1121.26 654.747 1128.64 642.898C1136.18 630.896 1139.95 615.892 1139.95 597.888ZM1434.5 753.232C1406.65 753.232 1381.72 746.077 1359.72 731.766C1337.71 717.455 1320.32 696.68 1307.55 669.443C1294.78 642.206 1288.39 609.121 1288.39 570.189C1288.39 530.795 1294.86 497.556 1307.78 470.473C1320.86 443.236 1338.48 422.692 1360.64 408.843C1382.8 394.84 1407.5 387.838 1434.74 387.838C1455.51 387.838 1472.59 391.377 1485.98 398.456C1499.37 405.381 1509.98 413.767 1517.83 423.616C1525.68 433.31 1531.76 442.466 1536.07 451.084H1539.53V274.273H1623.32V747H1541.15V691.141H1536.07C1531.76 699.758 1525.53 708.914 1517.37 718.609C1509.21 728.149 1498.44 736.305 1485.06 743.076C1471.67 749.847 1454.82 753.232 1434.5 753.232ZM1457.82 684.678C1475.51 684.678 1490.59 679.907 1503.06 670.366C1515.52 660.672 1524.99 647.207 1531.45 629.972C1537.91 612.737 1541.15 592.656 1541.15 569.727C1541.15 546.799 1537.91 526.871 1531.45 509.944C1525.14 493.017 1515.75 479.86 1503.29 470.473C1490.98 461.086 1475.82 456.393 1457.82 456.393C1439.2 456.393 1423.66 461.24 1411.19 470.935C1398.73 480.629 1389.34 494.017 1383.03 511.098C1376.72 528.179 1373.57 547.722 1373.57 569.727C1373.57 591.886 1376.72 611.66 1383.03 629.049C1389.49 646.284 1398.96 659.902 1411.42 669.905C1424.04 679.753 1439.51 684.678 1457.82 684.678ZM1789.42 274.273V747H1705.86V274.273H1789.42ZM2025.8 753.925C1990.25 753.925 1959.56 746.538 1933.7 731.766C1908 716.839 1888.23 695.757 1874.38 668.52C1860.53 641.129 1853.61 608.89 1853.61 571.805C1853.61 535.335 1860.53 503.327 1874.38 475.782C1888.38 448.083 1907.93 426.54 1933.01 411.151C1958.09 395.609 1987.56 387.838 2021.42 387.838C2043.27 387.838 2063.89 391.377 2083.28 398.456C2102.82 405.381 2120.05 416.152 2134.98 430.771C2150.06 445.39 2161.91 464.01 2170.53 486.631C2179.15 509.098 2183.45 535.873 2183.45 566.957V592.579H1892.85V536.258H2103.36C2103.2 520.254 2099.74 506.02 2092.97 493.555C2086.2 480.937 2076.74 471.012 2064.58 463.779C2052.58 456.547 2038.57 452.93 2022.57 452.93C2005.49 452.93 1990.49 457.085 1977.56 465.395C1964.63 473.551 1954.55 484.322 1947.32 497.71C1940.24 510.944 1936.63 525.486 1936.47 541.336V590.501C1936.47 611.122 1940.24 628.818 1947.78 643.591C1955.32 658.21 1965.86 669.443 1979.41 677.291C1992.95 684.985 2008.8 688.832 2026.96 688.832C2039.11 688.832 2050.12 687.14 2059.96 683.754C2069.81 680.215 2078.35 675.06 2085.59 668.289C2092.82 661.518 2098.28 653.132 2101.97 643.129L2179.99 651.901C2175.07 672.521 2165.68 690.525 2151.83 705.913C2138.14 721.148 2120.59 732.997 2099.2 741.46C2077.81 749.77 2053.35 753.925 2025.8 753.925ZM2289.42 879.955C2278.04 879.955 2267.5 879.031 2257.8 877.185C2248.26 875.492 2240.64 873.491 2234.95 871.183L2254.34 806.091C2266.49 809.63 2277.34 811.323 2286.88 811.169C2296.42 811.015 2304.81 808.014 2312.04 802.167C2319.43 796.473 2325.66 786.933 2330.74 773.545L2337.9 754.386L2209.33 392.455H2297.96L2379.68 660.21H2383.37L2465.31 392.455H2554.18L2412.22 789.933C2405.6 808.707 2396.83 824.788 2385.91 838.175C2374.98 851.717 2361.59 862.027 2345.74 869.106C2330.05 876.338 2311.27 879.955 2289.42 879.955Z" fill="#FF4300"/>
</svg>
